# xmcd
#
# Track frame offsets:
# 150
# 18111
# 35688
# 53533
# 70243
# 87688
# 105399
# 120966
# 134930
# 151386
# 168102
# 184786
# 198646
# 216275
#
# Disc length: 3093 seconds
#
#
# Revision: 0
# Processed by: cddbd v1.5.1PL0 Copyright (c) Steve Scherf et al.
# Submitted via: FreeRIP 2.942 
#
DISCID=c10c130e
DTITLE=Various Artist - Country Hits 2004 vol 4
DYEAR=2005
DGENRE=Country
TTITLE0=Toby Keith - Whiskey Girl
TTITLE1=Clint Black - The Boogie Man
TTITLE2=Andy Griggs - She Thinks She Needs Me
TTITLE3=Rachel Proctor - Me and Emily
TTITLE4=Brad Paisley f Alison Krauss - Whiskey Lullaby
TTITLE5=Joe Nichols - If Nobody Believed In You
TTITLE6=Josh Turner - What It Ain't
TTITLE7=Pinmonkey - Let's Kill Saturday Night
TTITLE8=Jenkins - Blame It On Mama
TTITLE9=Mary Chapin Carpenter - What Would You Say To Me
TTITLE10=Blake Shelton - When Somebody Knows You That Well
TTITLE11=Shannon Lawson - Smokin' (Bluegrass)
TTITLE12=Lonestar - Let's Be Us Again
TTITLE13=Terri Clark - Girls Lie Too
EXTD=
EXTT0=
EXTT1=
EXTT2=
EXTT3=
EXTT4=
EXTT5=
EXTT6=
EXTT7=
EXTT8=
EXTT9=
EXTT10=
EXTT11=
EXTT12=
EXTT13=
PLAYORDER=
